<svg id="Layer_1" xmlns="http://www.w3.org/2000/svg" width="230.8" height="98" viewBox="0 0 230.8 98"><style>.st0{fill:#077954}.st1{fill:#fff}.st2{fill:#df2a27}</style><path class="st0" d="M222 43.2c-16.3-9.4-53.8-18.9-69.7-20.2l-12-1c-12.8-1-19.8-1.6-25.2-1.6C109.7 20.4 78 23 78 23 62.3 24.3 24.7 33.8 8.5 43.2.8 47.6 0 50.7 0 61.1v26.4c0 2.1.3 5.3 2.5 7.6 2.6 2.7 5.9 2.7 9.8 2.7h205.9c3.9 0 7.2 0 9.8-2.7 2.2-2.4 2.5-5.5 2.5-7.6V61c0-10.3-.8-13.4-8.5-17.8z"/><path class="st1" d="M228 87.4c0 1.7-.2 4.1-1.8 5.7-1.8 1.9-4.4 1.9-8 1.9H12.3c-3.6 0-6.2 0-8-1.9-1.6-1.7-1.8-4.1-1.8-5.7V61c0-10 .9-11.9 7.1-15.5 16-9.2 53-18.6 68.7-19.9l12-1c12.7-1.5 19.8-1.9 25.1-1.9 5.3 0 13.3.3 24.9 1.9l12 1C168 26.8 205 36.2 221 45.5c6.3 3.6 7.1 5.5 7.1 15.5l-.1 26.4z"/><path class="st2" d="M165.1 13.9l-1.5-.5c-.4-.1-10-2.7-13.2-2.8l.7-3.8c0-.3-.1-.6-.3-.8-1.3-1.9-15.4-6-35.7-6C95 0 80.4 3.8 79 5.4c-.2.2-.3.5-.2.8l1 4.4c-3.2.1-12.8 2.7-13.2 2.8l-1.6.5.9 1 5.7 6-1.2 10.2-.2 1.4 1.3-.3c1.2-.3 2.5-.7 3.9-1.1 3.2-1 6.9-2.1 9.5-2.1 0 0 1.9 0 3.8-.2.7-.1 1-.3 1.1-.6.2-.9-2-2.4-2.6-2.7 1-.9 16.3-2.5 27.8-2.5h.5c11.4 0 26.4 1.6 27.3 2.5-.6.4-2.8 1.9-2.6 2.8.1.3.4.5 1.1.6 1.9.2 3.8.2 3.8.2 2.6 0 6.3 1.1 9.5 2.1 1.4.4 2.7.8 3.9 1.1l1.3.3-1.4-11.6 5.7-6 1-1.1z"/><path class="st0" d="M145.1 24.6l-.3-.2c-1.2-1.2-16.5-3-29.4-2.8-13-.2-29.2 1.9-30.1 3.2l-.1.1-.1-.4c0-.2-3.6-16.5-3.8-17.4 0-.1.1-.3.2-.4 1.3-1.6 16.1-4.8 33.9-4.8 7.7 0 15.5.8 23.1 2.1 5.6 1 9.6 2.1 10.3 3 .1.2.1.3 0 .5-.2.9-3.3 15.3-3.4 15.5l-.3 1.6zM83.4 26.5l-3.3-14.3H80c-2.5 0-11.8 2.5-11.8 2.5l5.3 5.6-1.1 9.9s3.2-.8 4.7-1.2c1.7-.5 3.3-.9 4.6-1.2.8-.2 1.7-.3 2.6-.3h.7l-.3-.2-1.3-.8zM146.7 26.8l3.3-14.3h.1c2.5 0 11.8 2.5 11.8 2.5l-5.3 5.6 1.1 9.9s-3.2-.8-4.7-1.2c-1.7-.5-3.3-.9-4.6-1.2-.8-.2-1.7-.3-2.6-.3l-.7-.1.3-.2 1.3-.7z"/><path class="st2" d="M18.6 73.9l-.6.1c0 3.9.1 7.8.1 11.6h-8V54.8l8.4-3c6.7-2.3 10.9 0 11 8.6.1 8.6-4.1 12.8-10.9 13.5zm.4-14.7l-1 .3c0 2.7 0 5.4.1 8l1.1-.2c2-.4 2.8-2.6 2.8-5-.1-2.4-1-3.7-3-3.1zM60.6 69.9l-.7.1v15.5h-8.3l-.1-43.1s5.8-1.2 8.7-1.7c6.9-1.3 12.2 2.4 12.3 13.1.2 10.6-5 15.4-11.9 16.1zm.3-19.9c-.4.1-1 .2-1 .2v10.7c3.7-.3 4.5-2 4.5-6.3.1-3.4-1.5-4.8-3.5-4.6zM201.8 55.7l-3.3-.6c.3-2.7.6-5.4.9-8 1.4.4 2.9.9 4.3 1.3-.6 2.4-1.3 4.8-1.9 7.3zM197.2 81.6V46.5l-.2-.1c-2.4-.6-4-1-6.5-1.7h-.1v20.6c-2.1-7.7-4.3-14-6.7-22-.1 0-.3 0-.4-.1l-7.3-1.6v25.5c-.1 5.9-.2 11.9-.3 18.3h7.9V63.8c2 7.4 4.6 14.7 6.5 21.6H197.2v-3.8zM173.2 41.2h-.2c-2.8-.5-8.1-1.3-8.1-1.3v17h-6.1V40.7v-1.6l-1-.1-6.6-.9-1-.1v.5c-.1 8.3 0 15.9 0 23.4v23.5h8.6V67.9h6.1v17.5h8.3V41.2zM212.8 63.6c-1.3-1.4-2.1-2.6-2.1-3.5 0-1.1.4-2 1.6-2 1.4.1 1.7 1.9 1.7 3.1 0 .3 0 .5.1.8h7.3c-.2-6.4-2.6-10.3-8.2-11.4-5.3-1.1-10.4 1.3-10.5 8-.1 4.1 1.8 7.7 4.8 10.7 1.4 1.4 2.7 2.7 4.1 4 1.3 1.2 2 2.1 2 3 0 1.1-.6 2-1.8 2-1.5 0-2.1-1.5-2.2-2.7V74h-7.3v1.1c-.1 6.8 3.7 11 9.2 11 6.5 0 10.1-4.1 10-9.6 0-3.2-1.9-5.7-4.7-8.6-1.3-1.5-2.6-2.9-4-4.3zM42.8 44.3c-2.9.7-5.7 1.4-8.6 2.2-2.1 13.6-4.2 26.6-6.3 39H36c.2-1.6.5-4.7.5-4.7h4.8s.4 3.1.6 4.7H50c-2.4-14.2-4.8-28-7.2-41.2zm-5.7 29.2s.9-9.6 1.4-14.3h.1c.6 4.6 1.8 14.3 1.8 14.3h-3.3zM88.5 37.3c-3 .3-8.1.8-11.2 1.2-2.3 16.1-4.5 31.4-6.7 46.9h9l.5-5.7h6l.6 5.7h9.2c-2.5-16.3-4.9-32.1-7.4-48.1zM81 71.1l2-17.3h.2l2.3 17.3H81zM135.8 36.4c-6.5-.2-11.6 5-11.7 14.1 0 7 0 14-.1 21 0 9 5.4 14.5 11.8 14.5s11.3-5.8 11.4-14.5c.1-6.8.1-13.3.2-20.1.1-8.9-4.1-14.7-11.6-15zm2.2 37.8c0 1.1-.9 2-2 2h-.4c-1.1 0-2-.9-2-2v-26c0-1.1.9-2 2-2h.4c1.1 0 2 .9 2 2v26zM112.9 36.3V75.1c0 .7-.5 1.3-1.2 1.4H111.4c-.8 0-1.4-.6-1.4-1.4v-4.9c-2.5 0-5.5 0-8 .1v5.1c0 6.2 3.8 10.5 9.5 10.5.5 0 1 0 1.4-.1 6.2-.5 8.8-4.6 8.8-13.9l.1-35.6h-8.9z"/><path class="st1" d="M94.5 19.3L93 7.1l3.6-.4c2.4-.3 4.3.7 4.6 3.1s-1.3 3.9-3.7 4.2l-1 .1.6 4.9-2.6.3zm2.7-7.5c.8-.1 1.5-.8 1.4-1.7v-.2c-.1-.9-.8-1.3-1.7-1.2l-.9.1.4 3h.8zM103.7 18.1L103 5.9l2.7-.2.7 12.3-2.7.1zM109.1 17.8V16l4.4-8.3-4.4.1V5.6l7.5-.1v1.7l-4.5 8.5 4.7-.1v2.2h-7.7zM119.2 17.7l.1-1.8 4.9-8.1-4.4-.2.1-2.2 7.5.4-.1 1.7-5 8.2 4.7.2-.1 2.2-7.7-.4zM134.8 19l-.1-1.5-2.5-.3-.5 1.5-2.7-.3 4.5-11.8 2.7.3 1.3 12.6-2.7-.5zm-.4-8.3l-1.6 4.6 1.8.2-.2-4.8z"/><path class="st0" d="M169.9 23.2c-2 0-3.7-1.6-3.7-3.7 0-2 1.6-3.7 3.7-3.7s3.7 1.6 3.7 3.7c0 2-1.6 3.7-3.6 3.7h-.1zm0-6.8c-1.7 0-3.2 1.4-3.2 3.1 0 1.7 1.4 3.2 3.1 3.2 1.7 0 3.2-1.4 3.2-3.1v-.1c.1-1.7-1.3-3.1-2.9-3.2-.1.1-.2.1-.2.1zm1.2 4.8c-.5 0-.7-.1-.7-.5v-.4c0-.3-.1-.5-.4-.5h-.6v1.4h-.6v-3.4h1.3c.7 0 1 .4 1 .9v.1c0 .4-.1.6-.5.7.3 0 .6.3.6.7v.4c0 .1.1.1.2.1v.4l-.3.1zm-.7-2.5c0-.2-.1-.4-.3-.4h-.7v1h.6c.2 0 .4-.1.5-.3V18.7z"/></svg>